<?xml version="1.0" encoding="utf-8"?>
<!-- Generator: Adobe Illustrator 25.2.1, SVG Export Plug-In . SVG Version: 6.00 Build 0)  -->
<svg version="1.1" id="Layer_1" xmlns="http://www.w3.org/2000/svg" xmlns:xlink="http://www.w3.org/1999/xlink" x="0px" y="0px"
	 viewBox="0 0 20.4 16.5" style="enable-background:new 0 0 20.4 16.5;" xml:space="preserve">
<path d="M16.3,0.7C12.3,0,8.1,0,4,0.7c-2.3,0.5-3.8,2-3.8,4v7c0,2,1.5,3.5,3.8,4c2,0.3,4.1,0.5,6.2,0.5c2.1,0,4.1-0.2,6.2-0.5
	c2.3-0.4,3.8-2,3.8-4v-7C20.2,2.7,18.7,1.1,16.3,0.7z M13.4,8.6l-5,3c-0.1,0-0.2,0.1-0.3,0.1c-0.1,0-0.2,0-0.2-0.1
	c-0.2-0.1-0.3-0.3-0.2-0.5v-6c0-0.2,0.1-0.3,0.2-0.4c0.2-0.1,0.4-0.1,0.5,0l5,3c0.2,0.2,0.3,0.5,0.2,0.7C13.6,8.5,13.5,8.6,13.4,8.6
	L13.4,8.6z"/>
</svg>
